<svg width="544" height="544" viewBox="0 0 544 544" fill="none" xmlns="http://www.w3.org/2000/svg">
<g filter="url(#filter0_d_389_1809)">
<rect x="14" y="6" width="516" height="516" rx="258" fill="white"/>
<path d="M347.05 349.262L284.587 286.799C279.837 290.916 274.296 294.122 267.962 296.418C261.629 298.714 254.9 299.862 247.775 299.862C230.675 299.862 216.187 293.924 204.312 282.049C192.437 270.174 186.5 255.845 186.5 239.062C186.5 222.278 192.437 207.949 204.312 196.074C216.187 184.199 230.596 178.262 247.537 178.262C264.321 178.262 278.61 184.199 290.406 196.074C302.202 207.949 308.1 222.278 308.1 239.062C308.1 245.87 306.992 252.441 304.775 258.774C302.558 265.108 299.233 271.045 294.8 276.587L357.5 338.812L347.05 349.262ZM247.537 285.612C260.362 285.612 271.287 281.06 280.312 271.955C289.337 262.851 293.85 251.887 293.85 239.062C293.85 226.237 289.337 215.272 280.312 206.168C271.287 197.064 260.362 192.512 247.537 192.512C234.554 192.512 223.51 197.064 214.406 206.168C205.302 215.272 200.75 226.237 200.75 239.062C200.75 251.887 205.302 262.851 214.406 271.955C223.51 281.06 234.554 285.612 247.537 285.612Z" fill="#666666"/>
</g>
<defs>
<filter id="filter0_d_389_1809" x="0" y="0" width="544" height="544" filterUnits="userSpaceOnUse" color-interpolation-filters="sRGB">
<feFlood flood-opacity="0" result="BackgroundImageFix"/>
<feColorMatrix in="SourceAlpha" type="matrix" values="0 0 0 0 0 0 0 0 0 0 0 0 0 0 0 0 0 0 127 0" result="hardAlpha"/>
<feOffset dy="8"/>
<feGaussianBlur stdDeviation="7"/>
<feComposite in2="hardAlpha" operator="out"/>
<feColorMatrix type="matrix" values="0 0 0 0 0 0 0 0 0 0 0 0 0 0 0 0 0 0 0.1 0"/>
<feBlend mode="normal" in2="BackgroundImageFix" result="effect1_dropShadow_389_1809"/>
<feBlend mode="normal" in="SourceGraphic" in2="effect1_dropShadow_389_1809" result="shape"/>
</filter>
</defs>
</svg>
