<svg width="505" height="505" viewBox="0 0 505 505" fill="none" xmlns="http://www.w3.org/2000/svg">
<circle cx="252.114" cy="252.114" r="252.114" fill="#46AAFF"/>
<path d="M346.726 209.205C347.474 180.851 345.031 156.711 328.095 133.235C286.808 75.9867 202.432 81.3492 169.028 143.263C157.643 164.35 155.998 184.791 156.971 208.491C149.874 212.523 142.981 213.52 137.167 220.31C119.271 241.164 130.142 272.748 157.175 277.828L157.111 370.164C158.25 380.235 167.358 388.836 177.791 387.7C187.166 386.674 191.429 378.71 199.036 375.244C222.818 364.413 228.054 389.659 246.694 391.897C272.256 394.95 275.282 372.288 294.662 372.634C309.659 372.909 315.091 389.03 329.383 387.962C337.322 387.375 344.291 379.407 346.216 372.123L346.318 277.249C386.131 271.887 385.09 216.607 346.726 209.205ZM211.318 207.148C201.616 207.148 193.749 199.337 193.749 189.697C193.749 180.057 201.616 172.246 211.318 172.246C221.02 172.246 228.883 180.057 228.883 189.697C228.883 199.337 221.02 207.148 211.318 207.148ZM292.915 207.148C283.213 207.148 275.346 199.337 275.346 189.697C275.346 180.057 283.213 172.246 292.915 172.246C302.617 172.246 310.48 180.057 310.48 189.697C310.48 199.337 302.617 207.148 292.915 207.148Z" fill="white"/>
</svg>
