<svg width="542" height="542" viewBox="0 0 542 542" fill="none" xmlns="http://www.w3.org/2000/svg">
<g filter="url(#filter0_d_389_1805)">
<rect x="14" y="6" width="514" height="514" rx="257" fill="white"/>
<path d="M271 338.75C249.818 338.75 231.898 335.489 217.239 328.966C202.58 322.443 195.25 314.482 195.25 305.083V220.917C195.25 211.658 202.65 203.733 217.449 197.14C232.248 190.547 250.099 187.25 271 187.25C291.901 187.25 309.752 190.547 324.551 197.14C339.35 203.733 346.75 211.658 346.75 220.917V305.083C346.75 314.482 339.42 322.443 324.761 328.966C310.102 335.489 292.182 338.75 271 338.75ZM271 236.067C283.064 236.067 295.443 234.208 308.139 230.491C320.834 226.773 329.005 222.6 332.652 217.971C328.865 213.482 320.623 209.344 307.928 205.556C295.233 201.769 282.924 199.875 271 199.875C258.656 199.875 246.241 201.699 233.756 205.346C221.272 208.993 213.065 213.201 209.137 217.971C213.065 222.881 221.201 227.124 233.546 230.701C245.89 234.278 258.375 236.067 271 236.067ZM270.79 281.096C276.681 281.096 282.573 280.78 288.465 280.149C294.356 279.518 300.002 278.571 305.403 277.308C310.804 276.046 315.959 274.503 320.869 272.679C325.778 270.856 330.197 268.822 334.125 266.577V233.962C330.057 236.207 325.568 238.241 320.658 240.065C315.749 241.888 310.558 243.431 305.087 244.694C299.617 245.956 294.006 246.938 288.254 247.64C282.503 248.341 276.681 248.692 270.79 248.692C264.898 248.692 259.006 248.341 253.115 247.64C247.223 246.938 241.577 245.956 236.176 244.694C230.775 243.431 225.655 241.888 220.816 240.065C215.976 238.241 211.662 236.207 207.875 233.962V266.577C211.662 268.822 215.941 270.856 220.71 272.679C225.48 274.503 230.565 276.046 235.966 277.308C241.366 278.571 247.012 279.518 252.904 280.149C258.796 280.78 264.758 281.096 270.79 281.096ZM271 326.125C277.733 326.125 284.677 325.529 291.831 324.336C298.985 323.144 305.543 321.566 311.505 319.602C317.467 317.638 322.517 315.464 326.655 313.079C330.793 310.694 333.283 308.24 334.125 305.715V279.412C330.197 281.657 325.778 283.656 320.869 285.409C315.959 287.163 310.804 288.671 305.403 289.933C300.002 291.196 294.391 292.143 288.57 292.774C282.748 293.405 276.822 293.721 270.79 293.721C264.758 293.721 258.796 293.405 252.904 292.774C247.012 292.143 241.366 291.196 235.966 289.933C230.565 288.671 225.48 287.163 220.71 285.409C215.941 283.656 211.662 281.657 207.875 279.412V305.925C208.576 308.31 210.961 310.73 215.029 313.184C219.097 315.639 224.147 317.814 230.179 319.707C236.211 321.601 242.804 323.144 249.958 324.336C257.112 325.529 264.126 326.125 271 326.125Z" fill="#666666"/>
</g>
<defs>
<filter id="filter0_d_389_1805" x="0" y="0" width="542" height="542" filterUnits="userSpaceOnUse" color-interpolation-filters="sRGB">
<feFlood flood-opacity="0" result="BackgroundImageFix"/>
<feColorMatrix in="SourceAlpha" type="matrix" values="0 0 0 0 0 0 0 0 0 0 0 0 0 0 0 0 0 0 127 0" result="hardAlpha"/>
<feOffset dy="8"/>
<feGaussianBlur stdDeviation="7"/>
<feComposite in2="hardAlpha" operator="out"/>
<feColorMatrix type="matrix" values="0 0 0 0 0 0 0 0 0 0 0 0 0 0 0 0 0 0 0.1 0"/>
<feBlend mode="normal" in2="BackgroundImageFix" result="effect1_dropShadow_389_1805"/>
<feBlend mode="normal" in="SourceGraphic" in2="effect1_dropShadow_389_1805" result="shape"/>
</filter>
</defs>
</svg>
