<svg width="514" height="514" viewBox="0 0 514 514" fill="none" xmlns="http://www.w3.org/2000/svg">
<circle cx="257.001" cy="257.001" r="257.001" fill="#46AAFF"/>
<path d="M147.185 217.227C152.084 214.65 157.678 213.365 163.974 213.365C171.297 213.365 177.924 215.169 183.856 218.778C189.787 222.387 194.476 227.513 197.933 234.163C201.39 240.812 203.113 248.515 203.113 257.273C203.113 266.03 201.384 273.788 197.933 280.537C194.476 287.286 189.781 292.517 183.856 296.231C177.924 299.939 171.297 301.799 163.974 301.799C157.579 301.799 151.985 300.535 147.185 298.013C142.392 295.491 138.548 292.214 135.66 288.196V300.408H114V186H135.66V227.276C138.443 223.154 142.287 219.804 147.185 217.227ZM177.819 243.897C175.704 240.133 172.921 237.275 169.464 235.316C166.006 233.357 162.268 232.38 158.247 232.38C154.227 232.38 150.637 233.384 147.185 235.393C143.728 237.402 140.945 240.315 138.83 244.128C136.715 247.941 135.66 252.428 135.66 257.576C135.66 262.725 136.715 267.216 138.83 271.024C140.945 274.837 143.728 277.751 147.185 279.759C150.643 281.768 154.326 282.772 158.247 282.772C162.168 282.772 166.006 281.74 169.464 279.682C172.921 277.624 175.704 274.682 177.819 270.869C179.934 267.056 180.989 262.52 180.989 257.267C180.989 252.014 179.929 247.66 177.819 243.897Z" fill="white"/>
<path d="M234.68 296.301C228.08 292.642 222.895 287.466 219.128 280.762C215.362 274.063 213.479 266.332 213.479 257.574C213.479 248.817 215.411 241.086 219.283 234.387C223.149 227.688 228.434 222.512 235.144 218.848C241.848 215.189 249.326 213.357 257.577 213.357C265.827 213.357 273.305 215.189 280.009 218.848C286.714 222.507 291.999 227.688 295.87 234.387C299.736 241.086 301.675 248.817 301.675 257.574C301.675 266.332 299.687 274.063 295.716 280.762C291.745 287.461 286.377 292.642 279.623 296.301C272.869 299.959 265.314 301.792 256.958 301.792C248.602 301.792 241.279 299.965 234.68 296.301ZM268.02 280.072C271.477 278.168 274.233 275.304 276.298 271.491C278.358 267.678 279.391 263.043 279.391 257.58C279.391 249.441 277.248 243.178 272.968 238.796C268.688 234.415 263.453 232.224 257.262 232.224C251.071 232.224 245.891 234.415 241.71 238.796C237.535 243.178 235.442 249.441 235.442 257.58C235.442 265.719 237.48 271.982 241.556 276.364C245.631 280.745 250.762 282.936 256.953 282.936C260.874 282.936 264.557 281.987 268.014 280.078L268.02 280.072Z" fill="white"/>
<path d="M333.386 296.301C326.786 292.642 321.601 287.466 317.834 280.762C314.068 274.063 312.185 266.332 312.185 257.574C312.185 248.817 314.117 241.086 317.989 234.387C321.855 227.688 327.14 222.512 333.85 218.848C340.554 215.189 348.032 213.357 356.283 213.357C364.533 213.357 372.011 215.189 378.716 218.848C385.42 222.507 390.705 227.688 394.576 234.387C398.442 241.086 400.381 248.817 400.381 257.574C400.381 266.332 398.393 274.063 394.422 280.762C390.451 287.461 385.083 292.642 378.329 296.301C371.575 299.959 364.02 301.792 355.664 301.792C347.308 301.792 339.985 299.965 333.386 296.301ZM366.731 280.072C370.189 278.168 372.944 275.304 375.01 271.491C377.07 267.678 378.102 263.043 378.102 257.58C378.102 249.441 375.96 243.178 371.68 238.796C367.4 234.415 362.164 232.224 355.973 232.224C349.783 232.224 344.602 234.415 340.422 238.796C336.247 243.178 334.154 249.441 334.154 257.58C334.154 265.719 336.191 271.982 340.267 276.364C344.343 280.745 349.473 282.936 355.664 282.936C359.585 282.936 363.269 281.987 366.726 280.078L366.731 280.072Z" fill="white"/>
</svg>
