<svg width="548" height="548" viewBox="0 0 548 548" fill="none" xmlns="http://www.w3.org/2000/svg">
<g filter="url(#filter0_d_389_1798)">
<rect x="14" y="6" width="520" height="520" rx="260" fill="white"/>
<path d="M197.125 342.875H224.031V315.969H197.125V342.875ZM239.406 342.875H266.312V315.969H239.406V342.875ZM281.687 342.875H308.594V315.969H281.687V342.875ZM323.969 342.875H350.875V315.969H323.969V342.875ZM197.125 216.031H224.031V189.125H197.125V216.031ZM197.125 258.312H224.031V231.406H197.125V258.312ZM197.125 300.594H224.031V273.687H197.125V300.594ZM239.406 216.031H266.312V189.125H239.406V216.031ZM239.406 258.312H266.312V231.406H239.406V258.312ZM239.406 300.594H266.312V273.687H239.406V300.594ZM281.687 216.031H308.594V189.125H281.687V216.031ZM281.687 258.312H308.594V231.406H281.687V258.312ZM281.687 300.594H308.594V273.687H281.687V300.594ZM323.969 216.031H350.875V189.125H323.969V216.031ZM323.969 258.312H350.875V231.406H323.969V258.312ZM323.969 300.594H350.875V273.687H323.969V300.594ZM197.125 358.25C193.025 358.25 189.437 356.712 186.362 353.637C183.287 350.562 181.75 346.975 181.75 342.875V189.125C181.75 185.025 183.287 181.437 186.362 178.362C189.437 175.287 193.025 173.75 197.125 173.75H350.875C354.975 173.75 358.562 175.287 361.637 178.362C364.712 181.437 366.25 185.025 366.25 189.125V342.875C366.25 346.975 364.712 350.562 361.637 353.637C358.562 356.712 354.975 358.25 350.875 358.25H197.125Z" fill="#666666"/>
</g>
<defs>
<filter id="filter0_d_389_1798" x="0" y="0" width="548" height="548" filterUnits="userSpaceOnUse" color-interpolation-filters="sRGB">
<feFlood flood-opacity="0" result="BackgroundImageFix"/>
<feColorMatrix in="SourceAlpha" type="matrix" values="0 0 0 0 0 0 0 0 0 0 0 0 0 0 0 0 0 0 127 0" result="hardAlpha"/>
<feOffset dy="8"/>
<feGaussianBlur stdDeviation="7"/>
<feComposite in2="hardAlpha" operator="out"/>
<feColorMatrix type="matrix" values="0 0 0 0 0 0 0 0 0 0 0 0 0 0 0 0 0 0 0.1 0"/>
<feBlend mode="normal" in2="BackgroundImageFix" result="effect1_dropShadow_389_1798"/>
<feBlend mode="normal" in="SourceGraphic" in2="effect1_dropShadow_389_1798" result="shape"/>
</filter>
</defs>
</svg>
