<svg width="542" height="542" viewBox="0 0 542 542" fill="none" xmlns="http://www.w3.org/2000/svg">
<g filter="url(#filter0_d_389_1802)">
<rect x="14" y="6" width="514" height="514" rx="257" fill="white"/>
<path d="M166.5 348.5V334.25H375.5V348.5H166.5ZM190.25 320C186.45 320 183.125 318.575 180.275 315.725C177.425 312.875 176 309.55 176 305.75V191.75C176 187.95 177.425 184.625 180.275 181.775C183.125 178.925 186.45 177.5 190.25 177.5H351.75C355.55 177.5 358.875 178.925 361.725 181.775C364.575 184.625 366 187.95 366 191.75V305.75C366 309.55 364.575 312.875 361.725 315.725C358.875 318.575 355.55 320 351.75 320H190.25ZM190.25 305.75H351.75V191.75H190.25V305.75Z" fill="#666666"/>
</g>
<defs>
<filter id="filter0_d_389_1802" x="0" y="0" width="542" height="542" filterUnits="userSpaceOnUse" color-interpolation-filters="sRGB">
<feFlood flood-opacity="0" result="BackgroundImageFix"/>
<feColorMatrix in="SourceAlpha" type="matrix" values="0 0 0 0 0 0 0 0 0 0 0 0 0 0 0 0 0 0 127 0" result="hardAlpha"/>
<feOffset dy="8"/>
<feGaussianBlur stdDeviation="7"/>
<feComposite in2="hardAlpha" operator="out"/>
<feColorMatrix type="matrix" values="0 0 0 0 0 0 0 0 0 0 0 0 0 0 0 0 0 0 0.1 0"/>
<feBlend mode="normal" in2="BackgroundImageFix" result="effect1_dropShadow_389_1802"/>
<feBlend mode="normal" in="SourceGraphic" in2="effect1_dropShadow_389_1802" result="shape"/>
</filter>
</defs>
</svg>
