<svg width="933" height="392" viewBox="0 0 933 392" fill="none" xmlns="http://www.w3.org/2000/svg">
<path d="M498.813 127.12C507.208 122.704 516.795 120.501 527.584 120.501C540.133 120.501 551.489 123.593 561.654 129.778C571.818 135.962 579.853 144.747 585.777 156.142C591.702 167.536 594.654 180.737 594.654 195.745C594.654 210.752 591.692 224.047 585.777 235.612C579.853 247.177 571.808 256.142 561.654 262.506C551.489 268.86 540.133 272.047 527.584 272.047C516.624 272.047 507.038 269.882 498.813 265.56C490.599 261.239 484.012 255.622 479.062 248.737V269.664H441.945V73.6074H479.062V144.34C483.832 137.276 490.419 131.536 498.813 127.12ZM551.31 172.823C547.685 166.373 542.915 161.475 536.991 158.118C531.066 154.761 524.659 153.087 517.77 153.087C510.88 153.087 504.728 154.808 498.813 158.25C492.889 161.693 488.119 166.685 484.495 173.22C480.87 179.754 479.062 187.442 479.062 196.265C479.062 205.087 480.87 212.785 484.495 219.31C488.119 225.844 492.889 230.837 498.813 234.279C504.738 237.721 511.05 239.442 517.77 239.442C524.489 239.442 531.066 237.674 536.991 234.146C542.915 230.619 547.685 225.579 551.31 219.045C554.934 212.51 556.742 204.737 556.742 195.735C556.742 186.733 554.925 179.272 551.31 172.823Z" fill="#46AAFF"/>
<path d="M648.75 262.629C637.441 256.36 628.554 247.49 622.1 236C615.645 224.521 612.418 211.272 612.418 196.265C612.418 181.258 615.73 168.01 622.365 156.53C628.989 145.05 638.046 136.18 649.545 129.901C661.034 123.632 673.848 120.492 687.987 120.492C702.126 120.492 714.94 123.632 726.43 129.901C737.919 136.171 746.976 145.05 753.61 156.53C760.235 168.01 763.556 181.258 763.556 196.265C763.556 211.272 760.149 224.521 753.345 236C746.54 247.48 737.341 256.36 725.767 262.629C714.193 268.899 701.246 272.038 686.927 272.038C672.608 272.038 660.059 268.908 648.75 262.629ZM705.883 234.818C711.808 231.556 716.53 226.648 720.07 220.114C723.6 213.58 725.37 205.636 725.37 196.275C725.37 182.327 721.698 171.594 714.363 164.086C707.029 156.577 698.057 152.823 687.448 152.823C676.839 152.823 667.962 156.577 660.797 164.086C653.643 171.594 650.056 182.327 650.056 196.275C650.056 210.223 653.548 220.956 660.532 228.464C667.517 235.972 676.309 239.726 686.918 239.726C693.637 239.726 699.95 238.1 705.874 234.828L705.883 234.818Z" fill="#46AAFF"/>
<path d="M817.898 262.629C806.589 256.36 797.702 247.49 791.248 236C784.793 224.521 781.566 211.272 781.566 196.265C781.566 181.258 784.878 168.01 791.513 156.53C798.137 145.05 807.194 136.18 818.693 129.901C830.182 123.632 842.996 120.492 857.135 120.492C871.274 120.492 884.089 123.632 895.578 129.901C907.067 136.171 916.124 145.05 922.758 156.53C929.383 168.01 932.705 181.258 932.705 196.265C932.705 211.272 929.298 224.521 922.493 236C915.688 247.48 906.49 256.36 894.915 262.629C883.341 268.899 870.394 272.038 856.075 272.038C841.757 272.038 829.207 268.908 817.898 262.629ZM875.041 234.818C880.965 231.556 885.688 226.648 889.227 220.114C892.757 213.58 894.527 205.636 894.527 196.275C894.527 182.327 890.855 171.594 883.521 164.086C876.186 156.577 867.214 152.823 856.605 152.823C845.996 152.823 837.119 156.577 829.955 164.086C822.8 171.594 819.214 182.327 819.214 196.275C819.214 210.223 822.706 220.956 829.69 228.464C836.674 235.972 845.466 239.726 856.075 239.726C862.795 239.726 869.107 238.1 875.032 234.828L875.041 234.818Z" fill="#46AAFF"/>
<path d="M196.158 392C304.493 392 392.316 304.248 392.316 196C392.316 87.7522 304.493 0 196.158 0C87.823 0 0 87.7522 0 196C0 304.248 87.823 392 196.158 392Z" fill="#46AAFF"/>
<path d="M275.513 167.68C276.138 143.765 274.084 123.406 259.888 103.604C225.26 55.3205 154.489 59.8406 126.476 112.068C116.926 129.855 115.545 147.094 116.359 167.084C110.415 170.488 104.633 171.32 99.7495 177.051C84.7397 194.64 93.8629 221.278 116.529 225.562L116.482 303.443C117.437 311.935 125.075 319.198 133.819 318.233C141.684 317.372 145.261 310.649 151.64 307.727C171.59 298.592 175.981 319.888 191.616 321.779C213.051 324.351 215.588 305.24 231.837 305.524C244.424 305.76 248.976 319.358 260.967 318.46C267.62 317.959 273.469 311.245 275.078 305.098L275.163 225.079C308.561 220.55 307.681 173.93 275.513 167.68ZM162.665 162.375C154.527 162.375 147.93 155.784 147.93 147.651C147.93 139.519 154.527 132.928 162.665 132.928C170.804 132.928 177.391 139.519 177.391 147.651C177.391 155.784 170.795 162.375 162.665 162.375ZM229.528 162.375C221.389 162.375 214.793 155.784 214.793 147.651C214.793 139.519 221.389 132.928 229.528 132.928C237.667 132.928 244.254 139.519 244.254 147.651C244.254 155.784 237.657 162.375 229.528 162.375Z" fill="white"/>
</svg>
