<svg width="549" height="549" viewBox="0 0 549 549" fill="none" xmlns="http://www.w3.org/2000/svg">
<g filter="url(#filter0_d_364_1764)">
<rect x="14" y="6" width="521" height="521" rx="260.5" fill="white"/>
<path d="M225.588 382.041C210.329 375.456 197.055 366.52 185.768 355.233C174.48 343.945 165.544 330.672 158.96 315.413C152.376 300.154 149.083 283.85 149.083 266.501C149.083 249.151 152.376 232.847 158.96 217.588C165.544 202.329 174.48 189.056 185.768 177.768C197.055 166.481 210.329 157.545 225.588 150.961C240.847 144.376 257.151 141.084 274.5 141.084C291.849 141.084 308.154 144.376 323.413 150.961C338.672 157.545 351.945 166.481 363.232 177.768C374.52 189.056 383.456 202.329 390.04 217.588C396.625 232.847 399.917 249.151 399.917 266.501C399.917 283.85 396.625 300.154 390.04 315.413C383.456 330.672 374.52 343.945 363.232 355.233C351.945 366.52 338.672 375.456 323.413 382.041C308.154 388.625 291.849 391.917 274.5 391.917C257.151 391.917 240.847 388.625 225.588 382.041ZM274.5 373.105C287.669 373.105 300.054 370.962 311.655 366.677C323.256 362.392 333.759 356.278 343.166 348.335L320.591 326.074C314.111 330.881 307.004 334.696 299.27 337.518C291.536 340.34 283.279 341.751 274.5 341.751C253.597 341.751 235.83 334.435 221.198 319.803C206.566 305.171 199.25 287.403 199.25 266.501C199.25 245.598 206.566 227.831 221.198 213.199C235.83 198.567 253.597 191.251 274.5 191.251C295.403 191.251 313.17 198.567 327.802 213.199C342.434 227.831 349.75 245.598 349.75 266.501C349.75 275.28 348.339 283.536 345.517 291.27C342.695 299.004 338.881 306.111 334.073 312.591L356.334 334.853C364.068 325.446 370.13 314.995 374.52 303.499C378.909 292.002 381.104 279.669 381.104 266.501C381.104 236.819 370.757 211.631 350.064 190.937C329.37 170.243 304.182 159.896 274.5 159.896C244.818 159.896 219.63 170.243 198.936 190.937C178.243 211.631 167.896 236.819 167.896 266.501C167.896 296.183 178.243 321.37 198.936 342.064C219.63 362.758 244.818 373.105 274.5 373.105ZM274.5 322.938C280.562 322.938 286.362 322.05 291.902 320.273C297.441 318.496 302.51 315.936 307.108 312.591L283.906 289.703C282.443 290.33 280.928 290.8 279.36 291.114C277.792 291.427 276.172 291.584 274.5 291.584C267.602 291.584 261.697 289.128 256.785 284.216C251.873 279.304 249.417 273.399 249.417 266.501C249.417 259.603 251.873 253.698 256.785 248.786C261.697 243.873 267.602 241.417 274.5 241.417C281.398 241.417 287.303 243.873 292.215 248.786C297.127 253.698 299.583 259.603 299.583 266.501C299.583 268.173 299.374 269.845 298.956 271.517C298.538 273.19 298.016 274.862 297.389 276.534L320.591 299.109C323.935 294.51 326.496 289.441 328.272 283.902C330.049 278.363 330.938 272.562 330.938 266.501C330.938 250.824 325.451 237.498 314.477 226.524C303.503 215.55 290.177 210.063 274.5 210.063C258.823 210.063 245.497 215.55 234.523 226.524C223.55 237.498 218.063 250.824 218.063 266.501C218.063 282.178 223.55 295.503 234.523 306.477C245.497 317.451 258.823 322.938 274.5 322.938Z" fill="#666666"/>
</g>
<defs>
<filter id="filter0_d_364_1764" x="0" y="0" width="549" height="549" filterUnits="userSpaceOnUse" color-interpolation-filters="sRGB">
<feFlood flood-opacity="0" result="BackgroundImageFix"/>
<feColorMatrix in="SourceAlpha" type="matrix" values="0 0 0 0 0 0 0 0 0 0 0 0 0 0 0 0 0 0 127 0" result="hardAlpha"/>
<feOffset dy="8"/>
<feGaussianBlur stdDeviation="7"/>
<feComposite in2="hardAlpha" operator="out"/>
<feColorMatrix type="matrix" values="0 0 0 0 0 0 0 0 0 0 0 0 0 0 0 0 0 0 0.1 0"/>
<feBlend mode="normal" in2="BackgroundImageFix" result="effect1_dropShadow_364_1764"/>
<feBlend mode="normal" in="SourceGraphic" in2="effect1_dropShadow_364_1764" result="shape"/>
</filter>
</defs>
</svg>
