<svg width="542" height="542" viewBox="0 0 542 542" fill="none" xmlns="http://www.w3.org/2000/svg">
<g filter="url(#filter0_d_364_1761)">
<rect x="14" y="6" width="514" height="514" rx="257" fill="white"/>
<path d="M198.971 245.546L225.029 256.609C227.979 250.709 231.134 244.891 234.494 239.155C237.853 233.419 241.418 227.928 245.188 222.684L225.767 218.751L198.971 245.546ZM236.829 265.459L269.525 298.155C278.867 293.894 287.635 289.059 295.829 283.651C304.024 278.242 310.661 272.998 315.742 267.917C329.017 254.642 338.768 241.039 344.996 227.109C351.224 213.178 354.583 197.445 355.075 179.909C337.539 180.401 321.806 183.76 307.875 189.988C293.944 196.216 280.342 205.967 267.067 219.242C261.986 224.323 256.742 230.96 251.333 239.155C245.925 247.349 241.09 256.117 236.829 265.459ZM288.208 229.69C288.208 224.855 289.847 220.799 293.125 217.521C296.403 214.244 300.459 212.605 305.294 212.605C310.128 212.605 314.185 214.244 317.463 217.521C320.74 220.799 322.379 224.855 322.379 229.69C322.379 234.525 320.74 238.581 317.463 241.859C314.185 245.137 310.128 246.776 305.294 246.776C300.459 246.776 296.403 245.137 293.125 241.859C289.847 238.581 288.208 234.525 288.208 229.69ZM289.438 336.013L316.233 309.217L312.3 289.796C307.056 293.566 301.565 297.13 295.829 300.49C290.093 303.85 284.275 307.005 278.375 309.955L289.438 336.013ZM369.579 165.405C371.054 187.694 368.268 208.016 361.221 226.371C354.174 244.727 342.538 262.017 326.313 278.242L325.821 278.734L325.329 279.226L330.738 306.267C331.229 308.726 331.106 311.102 330.369 313.396C329.631 315.691 328.361 317.739 326.558 319.542L284.521 361.825L263.625 313.151L221.833 271.359L173.158 250.463L215.442 208.426C217.244 206.623 219.293 205.353 221.588 204.615C223.882 203.878 226.258 203.755 228.717 204.246L255.758 209.655C255.922 209.491 256.086 209.368 256.25 209.286C256.414 209.204 256.578 209.081 256.742 208.917C272.967 192.692 290.257 181.015 308.613 173.886C326.968 166.757 347.29 163.93 369.579 165.405ZM189.629 301.105C195.365 295.369 202.372 292.46 210.648 292.378C218.924 292.296 225.931 295.123 231.667 300.859C237.403 306.595 240.23 313.601 240.148 321.878C240.066 330.154 237.157 337.16 231.421 342.896C227.16 347.157 220.563 350.681 211.631 353.467C202.699 356.253 189.301 358.875 171.438 361.334C173.896 343.47 176.477 330.031 179.181 321.017C181.885 312.003 185.368 305.366 189.629 301.105ZM199.954 311.676C197.66 314.134 195.611 317.985 193.808 323.23C192.006 328.474 190.449 335.194 189.138 343.388C197.332 342.077 204.051 340.52 209.296 338.717C214.54 336.914 218.392 334.866 220.85 332.571C223.964 329.785 225.562 326.303 225.644 322.123C225.726 317.944 224.292 314.298 221.342 311.184C218.228 308.234 214.581 306.8 210.402 306.882C206.223 306.964 202.74 308.562 199.954 311.676Z" fill="#666666"/>
</g>
<defs>
<filter id="filter0_d_364_1761" x="0" y="0" width="542" height="542" filterUnits="userSpaceOnUse" color-interpolation-filters="sRGB">
<feFlood flood-opacity="0" result="BackgroundImageFix"/>
<feColorMatrix in="SourceAlpha" type="matrix" values="0 0 0 0 0 0 0 0 0 0 0 0 0 0 0 0 0 0 127 0" result="hardAlpha"/>
<feOffset dy="8"/>
<feGaussianBlur stdDeviation="7"/>
<feComposite in2="hardAlpha" operator="out"/>
<feColorMatrix type="matrix" values="0 0 0 0 0 0 0 0 0 0 0 0 0 0 0 0 0 0 0.1 0"/>
<feBlend mode="normal" in2="BackgroundImageFix" result="effect1_dropShadow_364_1761"/>
<feBlend mode="normal" in="SourceGraphic" in2="effect1_dropShadow_364_1761" result="shape"/>
</filter>
</defs>
</svg>
